<?xml version="1.0" encoding="UTF-8"?>
<svg xmlns="http://www.w3.org/2000/svg" xmlns:xlink="http://www.w3.org/1999/xlink" id="Ebene_1" viewBox="0 0 289.98 122.4">
  <defs>
    <style>.cls-1,.cls-2,.cls-3,.cls-4{stroke-width:0px;}.cls-2{fill:url(#Unbenannter_Verlauf_2);}.cls-2,.cls-5,.cls-3,.cls-4{fill-rule:evenodd;}.cls-5{fill:url(#Unbenannter_Verlauf_4);stroke:#000;stroke-miterlimit:10;stroke-width:.44px;}.cls-3{fill:#040100;}.cls-4{fill:url(#Unbenannter_Verlauf_3);}</style>
    <linearGradient id="Unbenannter_Verlauf_4" x1="-4575.72" y1="-3204.29" x2="-4568.14" y2="-3233.19" gradientTransform="translate(12694.23 8996.4) scale(2.77)" gradientUnits="userSpaceOnUse">
      <stop offset="0" stop-color="#e7391f"></stop>
      <stop offset=".66" stop-color="#ffed00"></stop>
    </linearGradient>
    <linearGradient id="Unbenannter_Verlauf_2" x1="-4566.84" y1="-3230.03" x2="-4558.74" y2="-3246.39" gradientTransform="translate(12694.23 8996.4) scale(2.77)" gradientUnits="userSpaceOnUse">
      <stop offset=".51" stop-color="#3baa33"></stop>
      <stop offset="1" stop-color="#2f2483"></stop>
    </linearGradient>
    <linearGradient id="Unbenannter_Verlauf_3" x1="-4566.23" y1="-3231.52" x2="-4563.92" y2="-3238.13" gradientTransform="translate(12694.7 9062.26) scale(2.77 2.79)" gradientUnits="userSpaceOnUse">
      <stop offset=".21" stop-color="#ffed00"></stop>
      <stop offset=".33" stop-color="#e4de00"></stop>
      <stop offset=".5" stop-color="#b5cc00"></stop>
      <stop offset=".65" stop-color="#89bd21"></stop>
      <stop offset=".79" stop-color="#63b22d"></stop>
      <stop offset=".91" stop-color="#45ac32"></stop>
      <stop offset="1" stop-color="#38aa34"></stop>
    </linearGradient>
  </defs>
  <path class="cls-1" d="m85.55,68.35c.35.17.83.26,1.31.26.87,0,1.48-.61,1.48-2.4v-6.27h2.92v7.14c0,2.35-.96,3.96-3.92,3.96-.65,0-1.31-.17-1.79-.3v-2.4h0Zm17.16-1.61c0,3.01-1.96,4.36-4.79,4.36s-4.79-1.35-4.79-4.36v-6.8h2.92v6.32c0,1.44.39,2.66,1.87,2.66s1.87-1.22,1.87-2.66v-6.32h2.92v6.8h0Zm12.02,3.83c-1.83.48-3.22.48-4.23.48-2.92,0-6.27-1.48-6.27-5.62s2.92-5.71,6.93-5.71c.74,0,2.22.09,3.31.48l-.22,2.4c-.91-.52-1.96-.7-2.66-.7-2.35,0-4.31,1-4.31,3.53,0,2.13,1.52,3.44,3.66,3.44.39,0,.78-.04,1.05-.17v-2.18h-1.7v-2.09h4.53l-.09,6.14h0Zm2-10.63h7.71v2.09h-4.79v2.27h4.53v2.09h-4.53v2.48h4.97v2.09h-7.88v-11.02h-.01Zm9.71,0h3.7l3.7,7.45h.04l-.04-7.45h2.66v10.93h-3.62l-3.83-7.49h-.04l.09,7.49h-2.66v-10.93h0Zm12.15,0h3.96c3.79,0,6.49,1.18,6.49,5.4s-2.74,5.53-6.49,5.53h-3.96s0-10.93,0-10.93Zm2.92,8.76h1.13c2.18,0,3.4-1.13,3.4-3.31s-1.26-3.31-3.4-3.31h-1.13v6.62Zm9.19-8.76h5.18c1.96,0,3.53.87,3.53,2.74,0,1.48-.7,2.44-2.09,2.74v.04c.96.26,1,1.09,1.57,2.4l1.09,2.96h-3.05l-.61-1.96c-.61-1.87-.96-2.35-2.05-2.35h-.61v4.31h-2.92l-.04-10.89h0Zm2.92,4.53h.78c.96,0,2.13-.04,2.13-1.26,0-1-1-1.22-2.13-1.22h-.78v2.48Zm7.75-4.53h2.92v10.93h-2.92v-10.93Zm5.14,0h3.7l3.7,7.45h.04l-.04-7.45h2.66v10.93h-3.62l-3.83-7.49h-.04l.09,7.49h-2.66v-10.93h0Zm22.26,10.63c-1.83.48-3.22.48-4.23.48-2.92,0-6.27-1.48-6.27-5.62s2.92-5.71,6.93-5.71c.74,0,2.22.09,3.31.48l-.22,2.4c-.91-.52-1.96-.7-2.66-.7-2.35,0-4.31,1-4.31,3.53,0,2.13,1.52,3.44,3.66,3.44.39,0,.78-.04,1.05-.17v-2.18h-1.7v-2.09h4.53l-.09,6.14h0Zm6.93-10.63h3.96c3.79,0,6.49,1.18,6.49,5.4s-2.74,5.53-6.49,5.53h-3.96s0-10.93,0-10.93Zm2.88,8.76h1.13c2.18,0,3.4-1.13,3.4-3.31s-1.26-3.31-3.4-3.31h-1.13v6.62Zm14.38-8.93c3.62,0,5.49,2.13,5.49,5.66s-1.92,5.66-5.49,5.66-5.49-2.18-5.49-5.66,1.87-5.66,5.49-5.66Zm0,9.15c1.79,0,2.48-1.7,2.48-3.49,0-1.92-.7-3.49-2.48-3.49s-2.48,1.61-2.48,3.49.7,3.49,2.48,3.49Zm7.06-8.97h5.18c1.96,0,3.53.87,3.53,2.74,0,1.48-.7,2.44-2.09,2.74v.04c.96.26,1,1.09,1.57,2.4l1.09,2.96h-3.05l-.61-1.96c-.61-1.87-.96-2.35-2.05-2.35h-.61v4.31h-2.92l-.04-10.89h0Zm2.92,4.53h.78c.96,0,2.13-.04,2.13-1.26,0-1-1-1.22-2.13-1.22h-.78v2.48Zm9.24-2.35h-2.7v-2.18h8.32v2.18h-2.7v8.76h-2.92v-8.76h0Zm6.75-2.18h4.57l2.31,7.28h.04l2.44-7.28h4.44v10.93h-2.88l.04-8.41h-.04l-2.79,8.41h-2.7l-2.66-8.41h-.04l.04,8.41h-2.83v-10.93h.06Zm25.22,6.8c0,3.01-1.96,4.36-4.79,4.36s-4.79-1.35-4.79-4.36v-6.8h2.92v6.32c0,1.44.39,2.66,1.87,2.66s1.87-1.22,1.87-2.66v-6.32h2.92v6.8h0Zm1.92-6.8h3.7l3.7,7.45h.04l-.04-7.45h2.66v10.93h-3.62l-3.83-7.49h-.04l.09,7.49h-2.7l.04-10.93h0Zm12.15,0h3.96c3.83,0,6.49,1.18,6.49,5.4s-2.74,5.53-6.49,5.53h-3.96v-10.93h0Zm2.92,8.76h1.13c2.18,0,3.4-1.13,3.4-3.31s-1.26-3.31-3.4-3.31h-1.13v6.62h0Zm-191.16,15.2h1.22l4.36,10.93h-1.13l-1.18-2.92h-5.53l-1.18,2.92h-1.05l4.49-10.93Zm.52,1.05l-2.4,6.06h4.75l-2.35-6.06Zm6.88,3.7c0-.87,0-1.22-.04-1.79h1v1.52h.04c.35-.91,1.05-1.74,2.05-1.74.22,0,.52.04.7.09v1.05c-.22-.04-.48-.09-.74-.09-1.57,0-2,1.74-2,3.18v3.96h-1v-6.19h-.01Zm5.49-5.53h1v5.1h.04c.13-.39.91-1.52,2.48-1.52,2.35,0,3.31,1.74,3.31,4.18s-1.09,4.18-3.31,4.18c-1.13,0-1.96-.44-2.48-1.48h-.04v1.26h-1v-11.72h0Zm3.35,4.4c-1.79,0-2.35,1.87-2.35,3.35s.61,3.35,2.35,3.35c1.87,0,2.35-1.79,2.35-3.35s-.44-3.35-2.35-3.35Zm11.24,7.1c-.7.26-1.57.44-2.31.44-2.66,0-3.66-1.79-3.66-4.18s1.35-4.18,3.35-4.18c2.27,0,3.18,1.83,3.18,3.96v.48h-5.49c0,1.7.91,3.05,2.61,3.05.74,0,1.79-.3,2.22-.61l.09,1.05h.01Zm-.48-4.31c0-1.39-.57-2.79-2.05-2.79s-2.35,1.48-2.35,2.79h4.4Zm4.31-5.58h-1v-1.31h1v1.31Zm-1,2.13h1v8.02h-1v-8.02Zm7.36.83h-1.83v5.18c0,.7.26,1.31,1.09,1.31.39,0,.61-.09.91-.17l.04.83c-.22.09-.74.22-1.22.22-1.74,0-1.83-1.22-1.83-2.66v-4.66h-1.57v-.83h1.57v-1.92l1-.35v2.27h1.83v.78h.01Zm1.52,6.01c.61.3,1.31.48,2.09.48.96,0,1.79-.52,1.79-1.44,0-1.92-3.83-1.61-3.83-3.92,0-1.57,1.31-2.18,2.61-2.18.44,0,1.26.09,1.96.35l-.09.87c-.52-.22-1.22-.39-1.79-.39-1,0-1.74.3-1.74,1.35,0,1.48,3.92,1.31,3.92,3.92,0,1.7-1.57,2.27-2.79,2.27-.78,0-1.52-.09-2.22-.39l.09-.91h0Zm13.46.48c0,2.22-1,4.05-3.75,4.05-1.05,0-2-.3-2.4-.44l.09-1c.61.3,1.48.57,2.35.57,2.53,0,2.74-1.83,2.74-4.09h-.04c-.52,1.18-1.39,1.57-2.44,1.57-2.57,0-3.35-2.22-3.35-4.01,0-2.44.96-4.18,3.31-4.18,1.09,0,1.74.13,2.48,1.09h.04v-.91h1l-.04,7.36h0Zm-3.44-.17c1.79,0,2.44-1.7,2.44-3.14,0-1.92-.57-3.35-2.35-3.35s-2.35,1.79-2.35,3.35c-.04,1.57.61,3.14,2.27,3.14h0Zm11.54.61c-.7.26-1.57.44-2.31.44-2.66,0-3.66-1.79-3.66-4.18s1.35-4.18,3.35-4.18c2.27,0,3.18,1.83,3.18,3.96v.48h-5.49c0,1.7.91,3.05,2.61,3.05.74,0,1.79-.3,2.22-.61l.09,1.05h.01Zm-.48-4.31c0-1.39-.57-2.79-2.05-2.79s-2.35,1.48-2.35,2.79h4.4Zm13.03,4.57v-5.31c0-1.13-.44-2-1.7-2-1.09,0-2.13.91-2.13,2.92v4.4h-1v-5.31c0-1.13-.44-2-1.7-2-1.09,0-2.13.91-2.13,2.92v4.4h-1v-6.1c0-.61,0-1.22-.04-1.87h.96v1.35h.04c.3-.57.78-1.57,2.48-1.57.7,0,1.87.3,2.13,1.7h.04c.35-.96,1.31-1.7,2.57-1.7,1.61,0,2.53,1.13,2.53,2.66v5.49l-1.05.04h0v-.02Zm9.15-.26c-.7.26-1.57.44-2.31.44-2.66,0-3.66-1.79-3.66-4.18s1.35-4.18,3.35-4.18c2.27,0,3.18,1.83,3.18,3.96v.48h-5.49c0,1.7.91,3.05,2.61,3.05.74,0,1.79-.3,2.22-.61v1.05h.1Zm-.52-4.31c0-1.39-.57-2.79-2.05-2.79s-2.35,1.48-2.35,2.79h4.4Zm4.36-5.58h-1v-1.31h1v1.31Zm-.96,2.13h1v8.02h-1s0-8.02,0-8.02Zm3.88,1.87c0-.61,0-1.22-.04-1.87h.96v1.44h.04c.35-.74.91-1.61,2.57-1.61,1.96,0,2.74,1.31,2.74,3.09v5.1h-1v-4.84c0-1.48-.52-2.48-1.92-2.48-1.79,0-2.35,1.57-2.35,2.92v4.4h-1v-6.14h0Zm8.49,4.97c.61.3,1.31.48,2.09.48.96,0,1.79-.52,1.79-1.44,0-1.92-3.83-1.61-3.83-3.92,0-1.57,1.31-2.18,2.61-2.18.44,0,1.26.09,1.96.35l-.09.87c-.52-.22-1.22-.39-1.79-.39-1,0-1.74.3-1.74,1.35,0,1.48,3.92,1.31,3.92,3.92,0,1.7-1.57,2.27-2.79,2.27-.78,0-1.52-.09-2.22-.39l.09-.91h0Zm12.28-5.75c-.52-.22-1.18-.39-1.7-.39-1.92,0-3.01,1.39-3.01,3.35,0,1.83,1.09,3.35,2.92,3.35.61,0,1.22-.13,1.79-.35l.09.91c-.65.22-1.31.26-2.05.26-2.57,0-3.83-1.96-3.83-4.18,0-2.44,1.57-4.18,3.96-4.18.96,0,1.66.22,1.92.3l-.09.91h0v.02Zm2.18-4.84h1v5.1h.04c.44-.87,1.31-1.52,2.48-1.52,2.13,0,2.74,1.44,2.74,3.4v4.79h-1v-4.75c0-1.39-.26-2.57-1.92-2.57s-2.35,1.66-2.35,3.05v4.27h-1v-11.76h.01Zm13.68,10.46h0c-.48.96-1.57,1.48-2.57,1.48-2.27,0-2.61-1.52-2.61-2.27,0-2.66,2.83-2.79,4.92-2.79h.17v-.39c0-1.35-.48-2.05-1.83-2.05-.83,0-1.61.17-2.35.65v-1c.61-.3,1.66-.57,2.35-.57,1.96,0,2.79.91,2.79,2.96v3.53c0,.65,0,1.13.09,1.7h-.96v-1.26h0Zm-.09-2.74h-.26c-1.7,0-3.75.17-3.75,1.92,0,1.05.74,1.44,1.66,1.44,2.31,0,2.35-2,2.35-2.88v-.48h0Zm4.4-3.14h-1.61v-.83h1.61v-.57c0-1.7.04-3.35,2.13-3.35.3,0,.74.04.91.17l-.09.87c-.22-.09-.52-.17-.78-.17-1.35,0-1.22,1.48-1.22,2.4v.7h1.79v.83h-1.79v7.14h-1l.04-7.19h0Zm8.36,0h-1.83v5.18c0,.7.26,1.31,1.09,1.31.39,0,.61-.09.91-.17l.09.83c-.22.09-.74.22-1.22.22-1.74,0-1.83-1.22-1.83-2.66v-4.66h-1.57v-.83h1.57v-1.92l1-.35v2.27h1.83l-.04.78h0Zm-141.97,15.03h2.7c3.92,0,5.49,2.27,5.49,5.45,0,3.96-2.66,5.49-6.27,5.49h-1.92v-10.93h0Zm1.09,10.02h.91c3.09,0,5.14-1.26,5.14-4.62s-2-4.44-4.44-4.44h-1.57l-.04,9.06h0Zm12.89-7.23c2.57,0,3.75,2,3.75,4.18s-1.13,4.18-3.75,4.18-3.75-2-3.75-4.18,1.13-4.18,3.75-4.18h0Zm0,7.49c1.74,0,2.66-1.48,2.66-3.35s-.91-3.35-2.66-3.35-2.66,1.48-2.66,3.35.91,3.35,2.66,3.35Zm5.97-5.53c0-.87,0-1.22-.04-1.79h1v1.52h.04c.35-.91,1.05-1.74,2.05-1.74.22,0,.52.04.7.09v1.05c-.22-.04-.48-.09-.74-.09-1.57,0-2,1.74-2,3.18v3.96h-1v-6.19h-.01Zm9.06-.96h-1.83v5.18c0,.74.26,1.31,1.09,1.31.39,0,.61-.09.91-.17l.04.83c-.22.09-.74.22-1.22.22-1.74,0-1.83-1.22-1.83-2.66v-4.66h-1.57v-.83h1.57v-1.96l1-.35v2.27h1.83v.83h.01Zm11.81,7.19v-5.31c0-1.13-.44-2-1.7-2-1.09,0-2.13.91-2.13,2.92v4.4h-1v-5.31c0-1.13-.44-2-1.7-2-1.09,0-2.13.91-2.13,2.92v4.4h-1v-6.1c0-.61,0-1.22-.04-1.87h.96v1.35h.04c.3-.57.78-1.57,2.48-1.57.7,0,1.87.3,2.13,1.7h.04c.35-.96,1.31-1.7,2.57-1.7,1.61,0,2.53,1.13,2.53,2.7v5.49h-1.05v-.02Zm10.02-1.92c0,.61,0,1.22.04,1.87h-.96v-1.44h-.04c-.35.74-.91,1.61-2.57,1.61-1.96,0-2.74-1.31-2.74-3.05v-5.1h1v4.88c0,1.52.52,2.48,1.92,2.48,1.79,0,2.35-1.57,2.35-2.92v-4.4h1v6.06h0Zm2.88-4.23c0-.61,0-1.22-.04-1.87h.96v1.44h.04c.35-.74.91-1.61,2.57-1.61,1.96,0,2.74,1.31,2.74,3.05v5.1h-1v-4.84c0-1.52-.52-2.48-1.92-2.48-1.79,0-2.35,1.57-2.35,2.92v4.4h-1v-6.1h0Zm15.46,6.14h-1v-1.26h-.04c-.52,1-1.35,1.48-2.48,1.48-2.18,0-3.31-1.83-3.31-4.18s.96-4.18,3.31-4.18c1.57,0,2.35,1.13,2.48,1.52h.04v-5.1h1v11.72Zm-3.35-.7c1.74,0,2.35-1.87,2.35-3.35s-.61-3.35-2.35-3.35c-1.87,0-2.35,1.79-2.35,3.35s.48,3.35,2.35,3.35Zm11.46.44c-.7.26-1.57.44-2.31.44-2.66,0-3.66-1.79-3.66-4.18s1.35-4.18,3.35-4.18c2.27,0,3.18,1.83,3.18,3.96v.48h-5.49c0,1.7.91,3.05,2.61,3.05.74,0,1.79-.3,2.22-.61l.09,1.05h.01Zm-.48-4.31c0-1.39-.57-2.79-2.05-2.79s-2.35,1.48-2.35,2.79h4.4Zm3.35-1.66c0-.87,0-1.22-.04-1.79h1v1.52h.04c.35-.91,1.05-1.74,2.05-1.74.22,0,.52.04.7.09v1.05c-.22-.04-.48-.09-.74-.09-1.57,0-2,1.74-2,3.18v3.96h-1v-6.19h0Zm13.03,3.4c0,1.7-.74,3.01-2.57,3.01-.35,0-.78-.04-1.13-.17v-.96c.26.13.7.22,1,.22,1.22,0,1.61-.96,1.61-2.05v-8.15h1.09v8.1h0Zm9.19.91c0,.61,0,1.22.04,1.87h-.96v-1.44h0c-.35.74-.91,1.61-2.57,1.61-1.96,0-2.74-1.31-2.74-3.05v-5.1h1v4.88c0,1.52.52,2.48,1.92,2.48,1.79,0,2.35-1.57,2.35-2.92v-4.4h1l-.04,6.06h0Zm9.19,1.22c0,2.22-1,4.05-3.75,4.05-1.05,0-2-.3-2.4-.44l.09-1c.61.3,1.48.57,2.35.57,2.53,0,2.74-1.83,2.74-4.09h-.04c-.52,1.18-1.39,1.57-2.44,1.57-2.57,0-3.35-2.22-3.35-4.01,0-2.44.96-4.18,3.31-4.18,1.05,0,1.74.13,2.48,1.09h.04v-.91h1l-.04,7.36h0Zm-3.4-.17c1.79,0,2.44-1.7,2.44-3.14,0-1.92-.57-3.35-2.35-3.35s-2.35,1.79-2.35,3.35c-.04,1.57.57,3.14,2.27,3.14h0Zm11.54.61c-.7.26-1.57.44-2.31.44-2.66,0-3.66-1.79-3.66-4.18s1.35-4.18,3.35-4.18c2.27,0,3.18,1.83,3.18,3.96v.48h-5.49c0,1.7.91,3.05,2.61,3.05.74,0,1.79-.3,2.22-.61l.09,1.05h.01Zm-.48-4.31c0-1.39-.57-2.79-2.05-2.79s-2.35,1.48-2.35,2.79h4.4Zm3.35-1.57c0-.61,0-1.22-.04-1.87h.96v1.44h.04c.35-.74.91-1.61,2.57-1.61,1.96,0,2.74,1.31,2.74,3.05v5.1h-1v-4.84c0-1.52-.52-2.48-1.92-2.48-1.79,0-2.35,1.57-2.35,2.92v4.4h-1v-6.1h0Zm15.42,6.14h-1v-1.26h-.04c-.52,1-1.35,1.48-2.48,1.48-2.18,0-3.31-1.83-3.31-4.18s.96-4.18,3.31-4.18c1.57,0,2.35,1.13,2.48,1.52h.04v-5.1h1v11.72Zm-3.35-.7c1.74,0,2.35-1.87,2.35-3.35s-.61-3.35-2.35-3.35c-1.87,0-2.35,1.79-2.35,3.35s.48,3.35,2.35,3.35Zm8.93.7h-1.18l-2.7-8.02h1.09l2.22,6.93h.04l2.31-6.93h1.05l-2.83,8.02h0Zm9.93-.26c-.7.26-1.57.44-2.31.44-2.66,0-3.62-1.79-3.62-4.18s1.35-4.18,3.35-4.18c2.27,0,3.18,1.83,3.18,3.96v.48h-5.49c0,1.7.91,3.05,2.61,3.05.74,0,1.79-.3,2.27-.61v1.05h0Zm-.48-4.31c0-1.39-.57-2.79-2.05-2.79s-2.35,1.48-2.35,2.79h4.4Zm3.35-1.66c0-.87,0-1.22-.09-1.79h1v1.52h.04c.35-.91,1.05-1.74,2.05-1.74.22,0,.52.04.7.09v1.05c-.22-.04-.48-.09-.74-.09-1.57,0-2,1.74-2,3.18v3.96h-1l.04-6.19h0Zm5.49-5.53h1v5.1h.04c.13-.39.91-1.52,2.48-1.52,2.35,0,3.31,1.74,3.31,4.18s-1.09,4.18-3.31,4.18c-1.13,0-1.96-.44-2.48-1.48h-.04v1.26h-1v-11.72h0Zm3.35,4.4c-1.79,0-2.35,1.87-2.35,3.35s.61,3.35,2.35,3.35c1.87,0,2.35-1.79,2.35-3.35s-.48-3.35-2.35-3.35h0Zm10.46,6.06h0c-.48.96-1.57,1.48-2.57,1.48-2.27,0-2.61-1.52-2.61-2.27,0-2.66,2.83-2.79,4.92-2.79h.17v-.39c0-1.35-.48-2.05-1.83-2.05-.83,0-1.61.17-2.35.65v-.96c.61-.3,1.66-.57,2.35-.57,1.96,0,2.79.91,2.79,2.96v3.53c0,.65,0,1.13.09,1.7h-.96v-1.31h0v.02Zm-.09-2.74h-.26c-1.7,0-3.75.17-3.75,1.92,0,1.05.74,1.44,1.66,1.44,2.31,0,2.35-2,2.35-2.88v-.48h0Zm-3.75-6.62h1.18v1.31h-1.18v-1.31Zm2.66,0h1.18v1.31h-1.18v-1.31Zm4.79,4.53c0-.61,0-1.22-.04-1.87h.96v1.44h.04c.35-.74.91-1.61,2.57-1.61,1.96,0,2.74,1.31,2.74,3.05v5.1h-1v-4.84c0-1.52-.52-2.48-1.87-2.48-1.79,0-2.35,1.57-2.35,2.92v4.4h-1l-.04-6.1h0Zm15.46,6.14h-1v-1.26h-.04c-.52,1-1.35,1.48-2.48,1.48-2.18,0-3.31-1.83-3.31-4.18s.96-4.18,3.31-4.18c1.57,0,2.35,1.13,2.48,1.52h.04v-5.1h1v11.72Zm-3.35-.7c1.74,0,2.35-1.87,2.35-3.35s-.61-3.35-2.35-3.35c-1.87,0-2.35,1.79-2.35,3.35s.48,3.35,2.35,3.35Zm11.46.44c-.7.26-1.57.44-2.31.44-2.66,0-3.62-1.79-3.62-4.18s1.35-4.18,3.35-4.18c2.27,0,3.18,1.83,3.18,3.96v.48h-5.49c0,1.7.91,3.05,2.61,3.05.74,0,1.79-.3,2.27-.61v1.05h.01Zm-.48-4.31c0-1.39-.57-2.79-2.05-2.79s-2.35,1.48-2.35,2.79h4.4Z"></path>
  <path class="cls-5" d="m31.45,121.89L.95,60.86,85.12.65,31.45,121.89Z"></path>
  <path class="cls-3" d="m62.95,93.27c-.04-.09-.09-.17-.09-.26.13,0,.3,0,.48.04-.17.09-.3.13-.39.22Zm3.4-.74c1.05.09,6.06-1.18,6.06-2.53.55-.32.99-.48,1.31-.48.13-.7,1.44-2.31,2.13-2.61.3-1.31,2.61-2.83,2.61-3.88.52-.52.91-1.52,1.61-1.79-.04-.48.3-.87.35-1.26h.26c.52-1.05.35-2.44.35-3.62-.48-.48-.7-2.31-.3-2.74-.44-.57.04-1.18-.65-1.66v-.52c-.13-.09-.26-.17-.35-.26.26-1.44-1.26-3.79-2.22-4.79,0-.91-.7-2.53-1.61-2.88.13-.35,0-.7-.17-.78,0-.17-.48-.17-.44-.35-.13-.09.44-.17.35-.26,0-.17-.65-.3-.65-.44-.09,0,.39-.04.35-.04-.26-.52-.48-.7-.96-1.13,0-.78-.61-1.13-1.13-1.66-.09,0-.35-.04-.39,0-.13-.17-.26-.17-.26-.65,0,0,.83,0-.39-.44.09-.09-.52-.13-.39-.17-.17-.39-1-2.48-2.05-3.49-.26-.04-.7-.3-.91-.35.17-.39-.3-1.26-.61-1.44.13-.35-.57-.78-.83-.87.04-.09-.13-.3-.04-.35-.39-.61-.87-.52-1.05-1.61-.7-.13-1.18-.52-1.52-1.13-.87.65-2.27,3.44-1.92,4.44.3.04.61.13.96.26-.09.04-.13.13-.17.26.17.48.57.65.52.87.17-.09.44-.13.65-.17-.04.26-.04.48-.04.78.87.7,1.92,2.4,2.88,2.66-.06.17-.18.23-.35.17.09.13.17.3.35.44.04-.04.13-.04.26-.04.13.3.39.57.78.78,0,.13,2.35,3.66,2.83,3.88-.13,0-.26.04-.35.09.39.52,1.66,1.92,1.31,2.53.09.04.17.13.35.26.04.26.09.48.13.78.13.04.3.09.48.17-.13,0-.26.04-.35.09.61.83,1.35,1.79,1.26,2.92.7.7.39,2.05,1.18,2.88-.13.3-.13.61-.48.61.29.38.44.71.44,1-.09-.04-.13-.04-.17-.04,0,1.13.44,2.05.44,3.22.04,0,.13.04.26.09-.09,1.31-.39,3.09.35,4.23-.39.61-.35,1.31-.35,2-.87,1.79-3.88,2.09-5.49,2.92-.52,0-1.39-.48-1.7-.13-.52-.26-1.31.13-1.61-.17-.17.04-.35.09-.48.17-.09-.09-.17-.13-.26-.17-.09.04-.17.09-.26.17-.39-.26-.91-.09-1.35,0-1.22-.83-2.66.17-3.49-1.05-.61-.26-1.77-.55-3.49-.87-.04.09-.04.17-.04.3-1.09.04-1.7.26-2.05-.78l-.87.13c-.09-.3-.17-.57-.3-.83-.09.04-.17.09-.26.17-.35-.26-.87-.26-1.05.13-.17-.03-.32-.23-.44-.61-.13.04-.3.09-.39.13-.61-.48-1.39-.91-2.13-1.09-.04.13-.09.3-.13.48-.87,0-1,0-1.61-.61.13-.17.39-.13.52-.39-.87-.61-1.52-.87-2.57-1.05.04.13.09.3.13.48-.09.09-.46.1-1.13.04-.09-.26-.13-.48-.17-.65l.74-.13c-.65-.39-.57-.26-1.31-.26v-.3c-.17-.11-.64-.24-1.39-.39,0-.48-.96-.65-1.35-1.05-.39.04-.78.09-1.09.13v-.48c-.39-.26-.78-.48-1.09-.65l.13.44c-.52.52-2.13-.26-2.13-.87-.61-.04-1.05-.04-1.39-.57.35-.2.52-.37.52-.52-.13.04-.3.09-.39.13-.57-.65-1.22-.96-2.09-1.13-.26.17-.44.44-.61.65-.04-.09-.04-.17-.04-.3-.52-.13-.83-.39-1.31-.78v-.44c.17,0,.44,0,.65.04-.13.48.39.61.78.65.11-.11.16-.27.13-.48-.96-.09-1.87-1-2.92-1,.03.17-.03.33-.17.48-.35-.04-.65-.09-.96-.13-.04-.09-.04-.17-.04-.3-.74-.3-1.35-.83-1.96-1.13.09-.13.17-.3.35-.44-.13-.13-.26-.3-.35-.44-.17.03-.32.17-.44.44-.96.26-1.57-.96-2.53-1.18.04-.3.09-.52.13-.78-.22-.13-.48-.3-.65-.39,0,.09,0,.26.04.39.09,0,.17,0,.3.04v.48c-.22.09-5.79-3.14-6.49-3.4-.09.17-.13.39-.17.57.09.04.22.09.39.17-.09.52-.04.48.3.83.48-.3.22-.83.96-.83,0,.17.04.39.09.57-.17.04-.35.09-.48.17.09.04.22.09.39.17,0,.09,0,.17.04.35.15,0,.34.12.57.35-.06.09-.26.13-.61.13.52.61.78.87,1.57,1.09-.04.04-.04.13-.04.26,1.31.13,1.39,1.05,2.53,1.31l-.3-.87c.39,0,.83.39,1.31.52.22,1.18.74,1.66,1.44,2.4.13-.13.3-.3.48-.39.43.43.68.77.74,1,.04-.26.13-.48.26-.7.09.17.17.44.3.65-.09.04-.13.09-.17.17.65.13.91.65,1.66.83.09-.13.17-.26.3-.35.74,1.22.96,1.26,2.44,1.57-.04.17-.04.39-.04.61.32-.09.64-.09.96,0-.04.13-.04.3-.04.48.39,0,1.09.48,1.39.65.65-.39,2.05-.48,2.13.48-.13.04-.26.09-.35.17.44.57,2,1.09,2.57,1.39,0,.2.16.43.48.7-.04.09-.09.13-.09.26-1.22-.78-2.7-.44-3.14-1.92l-.57.13c-.44-.35-1.09-.7-1.7-.61-1.22-1.52-4.09-2.35-5.84-3.53-.09.04-.17.09-.26.17-.26-.3-.44-.57-.61-.83h-.65c0,.13.04.35.09.52.87.3,1.39.83,2.31,1-.09.57,2.05,1.35,2.4,1.44-.04.04-.04.13-.04.26.61,0,.91.35,1.35.78-.3-.04-.57-.09-.83-.09,0,.13,0,.3.04.48.74.26,2.35,1.48,3.01,1.35-.09-.09-.13-.17-.17-.26.13-.17.39-.13.61-.35.48.35.78.35,1,.87-.26,0-.44.04-.61.09,1.05.61,2.09,1.26,3.14,1.92.48.13,3.62,1.44,3.49,1.92.74.17,1.26.13,1.96.48.26.48,2.88,1.44,3.57,1.44,1.35.48,2.7.96,4.05,1.44.13.39-.04.44-.04.96.48.61.57,1.09,1.31,1.44,1.96.17,4.01.91,5.92.91,0,.04.04.13.09.26-.3.04-.35.26-.7.44,1.31,1,5.05.3,6.67.3.09.11.1.26.04.44.52-.03.85-.1,1-.22h0l-.06.03Zm-8.32-.04c-.09-.11-.09-.26,0-.44v.44Zm-.7-.35c.06-.17.15-.23.26-.17-.09,0-.17.09-.26.17Zm-5.18-1.74v-.35h-.17v.35h.17Zm2.44-.39c-.44-.44-.65-.44-1.31-.52.39-.17.65-.26.57-.78-.57,0-1.09-.3-1.7-.3-.04.09-.09.17-.09.35.61.04.83.3,1.31.44-.17.13-.39.39-.52.61.3.3.87-.04.78.57.26-.09.61-.22.96-.35v-.02Zm-4.18-.78c-.13,0-.26,0-.35.04.04.09.09.3.13.48.17-.2.25-.37.22-.52Zm-2.09-.22c0-.13,0-.3.04-.44.96.26,1.79.35,2.74.04-.74-.26-1.48-.78-2.27-.52l-.3-.44c-.13,0-.3.04-.39.09-.17-.3-.3-.48-.65-.48-.17.39.52.78.52,1.35-.44.09-.78,0-1.13-.17,0-.09,0-.13.04-.17-.17,0-.35.04-.48.09.09.26.57.44.74.65h1.14Zm-1.18-1.87c-.09-.04-.17-.09-.26-.13-.13.13-.26.3-.35.44.29-.06.5-.16.61-.3h0Zm-4.31-.17c0-.17-.06-.27-.17-.3-.04.13-.04.3-.04.44,0-.04.13-.09.22-.13h-.01Zm2.44-.17c-.06-.17-.05-.33.04-.48-.04.13-.04.3-.04.48Zm30.28-2.4s.04-.09.09-.13c-.04.04-.09.09-.09.13Zm-30.28-.39c.17-.96-1.05-1-1.79-1-.11-.2-.33-.35-.65-.44-.09.04-.13.13-.17.26.04.13.09.3.13.48.44.13,1.61.39,1.87.78.17-.09.35-.09.61-.09h0Zm-3.14-1.13v-.83c-.48-.09-.61-.09-.96-.44-.35,0-.65,0-1,.04,0,.09,0,.26.04.39.61.09,1.22.44,1.66.91.09-.04.17-.09.26-.09v.02Zm9.02-.52c-.13,0-.3.04-.39.09-.03.2,0,.37.09.52.15-.06.25-.26.3-.61h0Zm-12.07.17c.04-.57-.3-.87-.26-1.09-.87-.09-1.44-.13-2.4-.48-.13.52.09.57.44.91.44-.17,1.39.57,1.79.78.17-.09.3-.13.44-.13h0Zm-.83-.52v-.13h-.17v.13h.17Zm41.08-.13s.04-.09.09-.13c-.04.04-.09.09-.09.13Zm-35.9-.87c-.13,0-.26,0-.35.04.04.13.13.3.26.48,0-.17.04-.39.09-.52Zm-8.36-.09c-.06-.17-.05-.26.04-.26.13,0-.04.17-.04.26Zm-1-1.09c-.04-.09-.04-.17-.04-.26-.13-.04-.3-.04-.39-.04-.06.11-.03.26.09.44.09-.04.22-.09.35-.13h0Zm4.09-.61c-.26-.04-.48-.04-.65-.04l.3.44c.09-.13.22-.26.35-.39h0Zm-7.32-.83c-.09-.04-.13-.09-.17-.13-.17.09-.39.17-.52.3.22-.09.48-.13.7-.17h-.01Zm-1.18-.22v-.48h-.22v.48h.22Zm5.14-.39c.61-.61-.87-1.44-1.31-1.44.09.61.48,1.35.91,1.83.11-.26.24-.39.39-.39h.01Zm-5.58-.09c-.09-.04-.17-.09-.26-.09-.04.04-.09.13-.13.26.09-.09.26-.13.39-.17Zm7.06-.39c0-.26,0-.48.04-.7-.3,0-.52.04-.78.09,0,.2.1.42.3.65.17-.04.3-.04.44-.04Zm-8.89-.7v-.17c-.44-.09-.39-.17-1-.57-.04.09-.04.26-.04.39.32.11.51.24.57.39.09.22.48-.04.48-.04h0Zm-1.66-.78l-.35-.35c-.04.13-.04.3-.04.44.09,0,.26-.09.39-.09Zm20.47-.26c-.09-.13-.17-.26-.26-.35h-.48c-.04-.13-.04-.3-.04-.39-.57-.09-2-.96-2.35-1.48h-.39c.03.11.24.33.65.65v.57c.09.09.17.17.35.3.04-.13.13-.3.26-.44.48.09,1.48.96,1.96,1.18.09,0,.17-.04.3-.04h0Zm-15.07-.83c-.26-.04-.48-.04-.74-.04.04.17.09.39.17.61.17-.17.35-.35.57-.57h0Zm-6.75-.7c-.06-.11-.05-.2.04-.26.13-.09-.04.17-.04.26Zm5.45-.26c.03-.17-.1-.41-.39-.7-.09.09-.17.17-.26.35.17.09.26.25.26.48.13-.09.26-.13.39-.13h0Zm-7.84-.04v-.17h-.13v.17h.13Zm-.39-.39c-.3-.17-.57-.39-.83-.57-.17.04-.39.09-.52.13.38.11.74.32,1.09.61.09-.04.17-.13.26-.17h0Zm20.74-.13c-.13-.26-.57-.39-1.48-1.18-.09.04-.13.09-.17.17.48.39.96.78,1.44,1.18,0-.09.13-.13.22-.17h-.01Zm-18.08-1.09v-.13h-.17v.13h.17Zm5.4,0v-.13h-.22v.13h.22Zm8.1-2c-.09.09-.17.17-.26.35.48.13,1.39.87,1.87,1v.26c.49.11.8.26.91.44.3-.35-2.53-2.05-2.53-2.05h0Zm-10.02,1.66c.04-.09.09-.17.17-.3-.09.13-.13.22-.17.3Zm-4.44-.91c-.09-.09-.17-.17-.22-.3v.57s.13-.17.22-.26h0Zm-.13-.74c.22.04.48.13.78.26-.09-.52-.57-.78-1.05-.87-.03-.23-.13-.42-.3-.57-.22,0-.44,0-.61.04-.04.13-.04.3-.04.44.3.26.61.48.96.7-.04.04-.04.13-.04.26.04-.13.13-.22.3-.26Zm13.85-.39c-.65-.48-.61-.61-1.57-.87.44.35.91.65,1.39,1,.04-.04.09-.09.17-.13h.01Zm1.44-.39c-.26-.13-.48-.3-.74-.39-.09.04-.17.09-.26.13.26.17.48.39.78.61.15-.03.22-.14.22-.35h0Zm-18.99-.09v-.13h-.17v.13h.17Zm4.05-.83c-.11-.17-.24-.23-.39-.17.04.13.09.35.13.52.09-.13.17-.26.26-.35Zm11.54.04c-.17-.09-.35-.17-.48-.3-.04.04-.09.09-.09.17.32.11.51.24.57.39.09.22,0-.26,0-.26Zm-17.03.17c0-.13.04-.3.09-.44.06.17.03.32-.09.44Zm2.53-.48s.04-.09.09-.13c-.04,0-.09.09-.09.13Zm13.9-.22v-.13h-.48v.13h.48Zm-1.22-.57c-.44-.52-2.13-1.92-2.79-2.13.13-3.09,2.22-.3,3.57-.3-.13-.26-.3-.44-.39-.61-.09,0-.17,0-.26.04-.39-.44-1.05-.87-1.05-1.48.09-.04.26-.09.39-.13,0-1.09-.57-.96.96-1.31-.2-.23-.32-.49-.35-.78.09-.09.26-.13.39-.17-.26-1.09-1.09-1.87-1.96-2.35.3-.57-2.88-1.31-2.88-2.09-.09.04-.13.09-.17.17.04.04.09.13.17.26-.03.17-.13.3-.3.39-.13-.09-.26-.17-.35-.3.65-.91-.87-1.31-1.05-1.96-.44.17-1.57-.96-1.83-1.39-.43-.09-.8-.26-1.09-.52-.15.11-.28.33-.39.65h-.44c0-.3,0-.52.04-.78-.13-.09-.3-.13-.39-.17.13-.35-.39-.57-.61-.61.17-.87-.65-1.09-1.31-1.31-.04-.13-.09-.26-.09-.35l-.44.13c-.03-.11.02-.26.13-.44-.3-.57-.83-.78-1-1.39-.23-.03-.51-.17-.83-.44v.26c-.17.04-.35.09-.48.13-.04-.35-.09-.61-.13-.91-.17-.13-1-.74-.96-1.05-.3,0-.57,0-.83.04-.09-.3-.13-.57-.17-.83-.39-.35-3.96-3.27-3.96-3.96-.17-.09-.35-.13-.48-.17.13-.3-1.83-1.83-2.22-2.13-.35-1.05-1.13-1.83-2.05-2.61-.09,0-.13.04-.17.09.09.13.17.3.3.48-.09.09-.17.26-.3.39l-.96-.96v-.48c-.65-.13-.61-.3-1-.44,0-.17,0-.35.04-.48-.09-.04-.17-.04-.26-.04-.3-.52-.3-1-.78-1.31.35.78.65,1.52,1.05,2.31.04-.04.09-.04.17-.04.04.17.09.44.13.65.65,0,.78.35,1.18.78,0,.52.91,1.57,1.44,1.7.09.49.25.87.48,1.13l-.13.13c-.73-.55-1.09-.87-1.09-.96-.11.06-.23.34-.35.83-.65-.39-1-.78-1-1.61.13-.04.3-.04.48-.04v-.44c-.55-.17-.9-.2-1.05-.09-1.05-.61-2.53-2.31-2.53-3.57-1.44-1.05-1.83-5.05-1.83-6.62l.3-.13c-.09-.09-.17-.13-.3-.17,0-.2.12-.4.35-.61.09,0,.17.04.35.09-.13-.13-.17-.22-.22-.26.57-1.18,1.66-1.7,2.96-1.92.04-.13.13-.26.26-.35.13,0,.3,0,.48.04,1.96-.87,5.88-1.09,7.71.3.3-.17.87-.3,1.13,0,.13-.04.3-.09.48-.13.04.04.13.09.22.17,1.13-.91,3.22,1.18,4.53.78.91.91,2.92,1.44,4.14,1.92.74-.13,1.87.52,2.18,1.09.04-.09.13-.13.22-.17,2.48,1.13,4.92,2.92,7.75,2.92.57.48,1.22.96,1.83,1.48-.04.04-.04.13-.04.26.17,0,.48.16.91.48,1.31,0,2.96-1.66,4.05-2.4v-.52c-.39-.13-.78-.26-1.13-.35,0-.09,0-.13.04-.17-.3.04-.61-.3-1.31-.44.09-.17.17-.35.35-.48-.48-.09-2.22-.83-2.22-1.22-.44-.04-.87-.35-2.31-.83,0-.09,0-.13.04-.17-.32-.11-.96-.17-1.92-.17-.65-.26-1.09-.78-1.87-.78l-.13-.3c-.87-.3-2.88-.83-3.09-1.61-.96-.09-1.09-.26-1.74-1,.61-.13.83.13,1.35.39,2.05.52,4.84,2.88,6.75,2.88,0-.09,0-.17.04-.3-1.48-.13-2.61-1.61-4.09-1.61-.04-.09-.04-.17-.04-.3-.78-.26-1.48-.35-1.92-1l-.26.13c-.35-.22-2.92-1.31-3.31-1.13.35.44.57.39,1,.87-.13.04-.3.09-.39.13-1.09-.57-1.09-.48-2.18-.48,0-.13,0-.3.04-.39.3-.13.61-.22.96-.35-.65-.39-.91-.52-1.31.09-.3-.17-.17-.87,0-1.05-1.13-.13-3.01-.35-4.01-1,0-.13.04-.22.09-.35-.57-.22-1.87-.09-2.09-.35-.32.23-.62.35-.91.35-.13-.17-.3-.35-.44-.48-.44,0-.87.04-1.31.09,0,.13,0,.35.04.52h-.65c-.04-.17-.04-.35-.04-.48-.09.04-.17.09-.22.17-.48-.13-.96-.3-1.44-.39-1.79.35-3.53.65-5.27,1,.09-.17.22-.35.39-.48.48,0,.52-.13.91-.39-1.44-.35-3.01.96-3.53,2.13-.13-.04-.26-.09-.35-.13,0,1.35-1.92,1.83-1.92,3.31-.57.39-.96,2.09-.96,2.88-.13.04-.3.13-.39.26.3,1.48,0,4.01.04,5.58.09.04.22.13.39.26-.09.65.17,1,.44,1.57.13,1.52,1.09,1.61,1.09,3.01,1.05.74,1.26,2.83,2.48,3.09.26,1.31,5.58,6.49,5.49,6.88.15.03.02.07-.39.13l-.35-.35c-.09,0-.17.04-.22.09.65.48,1.35,1.39,1.96,2,.09-.09.17-.13.3-.17-.09-.09-.17-.17-.3-.26.03-.11.2-.17.52-.17.39.61.57.61.7,1.05-.13.13-.22.3-.35.44,1.66,1.05,3.57,4.36,5.23,4.75.09.39,5.53,4.75,5.75,4.79.39.44.96.61,1.57,1.26,0-.13.04-.3.09-.44-.39-.17-.78-.39-1.13-.52l-.13-.57c.78.13.87.39,1.61.7-.04.26.13.48.09,1.26.52.26,2.22,1.35,2.35,1.83.17-.26.35-.41.52-.44,0,.3,0,.57.04.91.57.3,1.22.96,1.87,1v.26l.44-.3c.91.52,1.83,1.39,2.79,1.79-.04.04-.04.13-.04.26.17-.13.26-.26.35-.35h0l.04-.04Zm-16.03-.52c-.06-.11-.05-.2.04-.26-.04.09-.04.17-.04.26Zm19.17,0c.03-.17.11-.23.26-.17-.13.04-.22.09-.26.17Zm-19.95-.13c.06-.17.19-.26.39-.26-.17.04-.3.17-.39.26Zm-.3-.74h-.35c.09.09.17.26.35.39v-.39Zm19.82.17c-.09,0-.13,0-.17.04.04.04.09.09.13.17,0-.09,0-.17.04-.22h0Zm-1.35-.39v-.44.44Zm-18.69-.48c-.09-.04-.17-.09-.3-.09-.04.04-.09.13-.13.26l.44-.17h0Zm9.85-4.31c-.09,0-.17,0-.22.04-.03-.2-.2-.4-.52-.61,0,.7.39.7.74,1.35-.04-.3-.04-.52,0-.78h0Zm47.88.13c-.04-.13-.09-.3-.09-.39-.17-.04-.39-.04-.52-.04.09.04.26.09.39.17-.04.04-.04.13-.04.26,0,0,.26,0,.26,0Zm-50.53-.61s.04-.09.09-.13c0,.04-.09.09-.09.13Zm1.39-.48c-.15-.09-.31-.07-.48.04l.13.44c.17-.06.29-.22.35-.48Zm1.87.39v-.48c-.57-.48-1.13-1.09-1.92-1.09v.61c.15,0,.65.35,1.52,1.05.13-.04.26-.09.39-.09h.01Zm-3.49-.39c-.48-.52-.91-1.05-1.35-1.57h-.52c-.17.57.83,1.31,1.26,1.7.17-.04.39-.09.61-.13Zm49.79-.48s.04-.09.09-.13c-.04.04-.09.09-.09.13Zm-3.62-.17l-.13-.3.13.3Zm2.83-.65c-.09-.09-.13-.17-.17-.3.04.13.09.22.17.3Zm-50.58-1.52c-.13.09-.3.17-.39.35.09.09.17.26.3.39,0-.26.04-.48.09-.74h0Zm8.89.35c-.52-.57-.61-.48-.87-.96-.17.09-.35.17-.48.35.38.2.7.43.96.7.09-.04.26-.09.39-.09Zm40.86.09s.04-.09.09-.13c0,.04-.09.09-.09.13Zm-44.35-.91c-.44-.3-1.22-1.18-1.48-.96.35.44.52.61.52,1.22.32.09.51.2.57.35.26-.2.39-.4.39-.61Zm43.74-.04c-.09-.13-.13-.26-.17-.35.04.13.09.22.17.35Zm-49.49-.61c-.04-.17-.04-.35-.04-.48-.09,0-.17.04-.3.09,0,.13.04.35.09.52.09-.04.17-.09.26-.13h-.01Zm6.93-.35s.04-.09.09-.13c-.04.04-.09.09-.09.13Zm37.81-.3c0-.09.04-.17.09-.3,0,.09-.09.17-.09.3Zm-.48-.48c-.09-.09-.13-.17-.17-.26.04.04.09.13.17.26Zm-1.18-1.74c-.09.04-.17.13-.3.26.13,0,.3.04.44.09-.03.17,0,.32.09.44,0-.41-.07-.67-.22-.78h0Zm3.83.61s.04-.09.09-.13c-.04.04-.09.09-.09.13Zm-.3-.65c-.09-.09-.13-.17-.17-.3.04.13.09.22.17.3Zm-4.49-.3c-.09-.17-.17-.35-.26-.48.23.26.32.42.26.48Zm-41.56-1.87s.04-.09.09-.13c-.04,0-.09.04-.09.13Zm-4.18-1.26c-.09-.17-.13-.35-.17-.48-.22,0-.48,0-.74.04.04.26.39.48.35.74.23-.06.42-.16.57-.3h-.01Zm48.01.3s.04-.09.09-.13c-.04,0-.09.04-.09.13Zm-55.54-.96c-.09-.09-.13-.17-.17-.3.04.09.09.17.17.3Zm54.89,0c-.09-.13-.13-.26-.17-.35.04.09.09.17.17.35Zm-55.85-1.31c-.3-.3-.57-.57-.83-.87h-.3v.3c.13.04.3.09.48.13-.04.09.3.35.22.57.17-.04.3-.09.44-.13h0Zm7.06-.13c-.17-.57-.39-.39-.65-.78.41-.41.61-.71.61-.91-.87-.44-1.31-1.48-2.35-1.48,0,.17.04.39.09.61.39.17.78.39,1.13.57.04.44.09.74.48.91-.13.13-.22.3-.35.48l.57.74c.17-.04.3-.09.48-.13h0Zm-4.88-.57c0-.13.04-.3.09-.39-.09-.04-.17-.09-.22-.13-.13.04-.3.13-.44.26.04.09.13.26.22.39.09-.09.17-.13.35-.13Zm-3.35-.74v-.13h-.48v.13h.48Zm-.74-.65c-.17-.26-.39-.48-.52-.74h-.3v.3c.13.04.35.09.52.17,0,.13,0,.3.04.44.09-.09.17-.13.26-.17Zm2.27-.65v-.52c-.83-.52-2.44-2.35-2.74-3.18-.17-.04-.35-.09-.48-.09,0-.74-.39-1-.96-1.39,0-.17.04-.39.09-.52-.38.06-.64.18-.78.35.29.35.61.88.96,1.61,1.13.78,2.35,3.09,3.35,3.44,0,.13.04.3.09.48.17-.04.35-.09.48-.17h-.01Zm3.53-.57c-.13-.17-.3-.35-.39-.48.17-.09.44-.17.65-.26-.3-.57-.44-.57-1-.83v.48c-.65-.09-1.31-.17-1.92-.26,0,.13.04.35.09.52.04-.04.13-.04.22-.04.57,1.13,1.18.39,1.87,1.22l.48-.35h0Zm-6.84.26c-.06-.11-.05-.2.04-.26.13-.09-.04.17-.04.26Zm6.36-1.26c-.09.04-.17.13-.3.26.04.04.09.13.13.26.09-.22.13-.35.17-.52Zm-3.53-2.57c-.17-.09-.39-.17-.52-.3-.04.13-.04.3-.04.48.17-.09.39-.13.57-.17h-.01Zm-4.36-2v-.48h-.26c-.44-.78-.87-2.13-1.66-2.4.61-.61-.87-3.01-1.35-2.74-.09.52-.17,1.18.39,1.48,0,.91,1.26,2.57,1.57,3.57.3.04.87.09.78.61.13,0,.35-.04.52-.04h0Zm3.44-1s.04-.09.09-.13c-.04.04-.09.09-.09.13Zm-3.01-3.96v-.22h-.48v.17l.48.04h0Zm27.75-1.92v-.17h-.17v.17h.17Zm2-1.39v.65c.09.04.26.13.39.26.04-.44.17-1-.39-.91Zm4.57.04c-.3-.04-.52-.04-.78-.04-.04.13-.04.3-.04.44.09,0,.17,0,.35.04.09.11.12.26.09.44.3-.22.39-.52.39-.87h0Zm-36.11.39v-.44.44Zm38.86-.74c-1.09-.17-2.35-1.39-3.4-1.05.44.26.87.48,1.35.74.04-.09.13-.13.26-.17.48.26,1.26.61,1.57,1.05.15-.17.22-.36.22-.57Zm-4.31.22c-.41-.26-.78-.39-1.13-.39v.3c.13-.04.3-.09.48-.13l.44.44c0-.13.13-.17.22-.22h0Zm.91-.74c-.17-.04-.39-.09-.52-.13-.09.09.04.13.13.57.09-.13.22-.26.39-.44Zm-35.59.3v-.17h-.13v.17h.13Zm34.68-.52c-.35-.3-.61-.52-.91-.78-.09.04-.17.09-.26.13.09.49.23.81.44.96.35-.06.59-.16.74-.3h-.01Zm-7.84-.48c-.13-.13-.26-.3-.35-.44-.11.11-.17.43-.17.96.13-.17.3-.39.52-.52Zm1.74-.83h-.39v.65c.23-.15.36-.36.39-.65Zm7.32.26c-.03-.09-.22-.13-.57-.13l-.13-.3c-.3-.04-.52-.09-.78-.09v.17c.78.17.35,0,1.09.61.13-.09.26-.17.39-.26Zm-4.75-.7c-.15-.15-.48-.25-1-.3v.17h.44c.04.17.09.39.17.61.09-.17.22-.3.39-.48Zm-1.92-.17c-.35-.26-.48-.78-.96-.65,0,.52.13.65.57,1,.09-.17.26-.26.39-.35Zm5.1.04c-.57-.74-1.87-.39-2.31-1.22h-.52v.35h.39c.04.09.09.17.17.35.83-.17,1,.61,1.87.61.04.04.09.13.13.26.09-.17.17-.26.26-.35h.01Zm-12.11-.57c-.09-.17-.13-.35-.17-.48-.3,0-.57,0-.87.04.26.29.38.51.35.65.26-.09.48-.17.7-.22h-.01Zm3.7-.96c-.11-.17-.16-.33-.13-.48h-.87v.3c.13.04.3.09.48.17-.04.04-.04.13-.04.26.26-.06.45-.15.57-.26h0Zm-1.79-.87l-.44-.44h-.52v.3c.17.09.39.26.61.39-.04.04-.04.13-.04.26.13-.22.26-.39.39-.52h0Zm-12.07-.52c-.04-.13-.04-.3-.04-.39-.13,0-.22,0-.35.04,0,.17,0,.44.04.65.09-.13.17-.22.35-.3Zm11.98.04s.04-.09.09-.13c-.04.04-.09.09-.09.13Zm-1.96-.52c-.17-.09-.39-.13-.52-.17,0,.13.04.35.09.52.17-.17.3-.26.44-.35h-.01Zm-10.11-.65l.44.13c.09-.15.07-.42-.04-.83-.35.04-.65.09-1,.17l.3.74c.04-.09.13-.17.3-.22h0Zm7.06-.04v-.48c-.64-.09-1.4-.3-2.27-.65-.29.26-.44.48-.44.65.78.13,1.87.13,2.31.78.09-.13.26-.22.39-.3h.01Zm3.44.26c-.06-.11-.05-.27.04-.48-.04.17-.04.3-.04.48Zm-2.88-2.7l-.3-.44c.13.13.22.26.3.44Zm-16.6-.17s.04-.09.09-.13c-.04.04-.09.09-.09.13Zm.35-.96s.04-.09.09-.13c-.04.04-.09.09-.09.13Zm4.44,0s.04-.09.09-.13c-.04.04-.09.09-.09.13Zm1.31,0s.04-.09.09-.13c-.04.04-.09.09-.09.13Zm-4.31-.48v-.17h-.13v.17h.13Z"></path>
  <path class="cls-2" d="m60.94,54.36l-32.37-13.03L85.12.65l-24.18,53.71Z"></path>
  <path class="cls-4" d="m48.44,27.09l20.39,9.85-7.93,17.51-32.28-13.11s19.82-14.25,19.82-14.25Z"></path>
</svg>
